<?xml version="1.0" encoding="UTF-8" standalone="no"?>
<!-- Created with Inkscape (http://www.inkscape.org/) -->

<svg
   xmlns:dc="http://purl.org/dc/elements/1.1/"
   xmlns:cc="http://creativecommons.org/ns#"
   xmlns:rdf="http://www.w3.org/1999/02/22-rdf-syntax-ns#"
   xmlns:svg="http://www.w3.org/2000/svg"
   xmlns="http://www.w3.org/2000/svg"
   xmlns:sodipodi="http://sodipodi.sourceforge.net/DTD/sodipodi-0.dtd"
   xmlns:inkscape="http://www.inkscape.org/namespaces/inkscape"
   width="1024"
   height="1024"
   viewBox="0 0 270.93332 270.93334"
   version="1.1"
   id="svg8"
   inkscape:version="0.92.3 (2405546, 2018-03-11)"
   sodipodi:docname="wr.svg"
   inkscape:export-filename="/data/1-ai-data/dev/wasta-images/wasta-images/2019-logos/w-dark-22.png"
   inkscape:export-xdpi="2.0599999"
   inkscape:export-ydpi="2.0599999"
   style="enable-background:new">
  <defs
     id="defs2" />
  <sodipodi:namedview
     id="base"
     pagecolor="#ffffff"
     bordercolor="#666666"
     borderopacity="1.0"
     inkscape:pageopacity="0.0"
     inkscape:pageshadow="2"
     inkscape:zoom="0.5"
     inkscape:cx="112.85114"
     inkscape:cy="458.18931"
     inkscape:document-units="px"
     inkscape:current-layer="g1042"
     showgrid="false"
     units="px"
     inkscape:pagecheckerboard="true"
     inkscape:window-width="1920"
     inkscape:window-height="1019"
     inkscape:window-x="0"
     inkscape:window-y="0"
     inkscape:window-maximized="1"
     scale-x="0.26458" />
  <metadata
     id="metadata5">
    <rdf:RDF>
      <cc:Work
         rdf:about="">
        <dc:format>image/svg+xml</dc:format>
        <dc:type
           rdf:resource="http://purl.org/dc/dcmitype/StillImage" />
        <dc:title />
      </cc:Work>
    </rdf:RDF>
  </metadata>
  <g
     style="display:none"
     transform="translate(0,-26.066646)"
     id="g896"
     inkscape:groupmode="layer"
     inkscape:label="bg"
     sodipodi:insensitive="true">
    <circle
       cy="161.53329"
       cx="135.46666"
       id="circle882"
       style="fill:#404756;fill-opacity:1;stroke:#404756;stroke-width:0;stroke-linecap:round;stroke-miterlimit:4;stroke-dasharray:none;stroke-opacity:1"
       r="118.53333" />
    <flowRoot
       transform="matrix(0.26458333,0,0,0.26458333,0,161.53331)"
       style="font-style:normal;font-variant:normal;font-weight:normal;font-stretch:normal;font-size:40px;line-height:1.25;font-family:arial;-inkscape-font-specification:arial;letter-spacing:0px;word-spacing:0px;fill:#000000;fill-opacity:1;stroke:none"
       id="flowRoot892"
       xml:space="preserve"><flowRegion
         id="flowRegion888"><rect
           y="-124.3961"
           x="332.34018"
           height="485.88336"
           width="661.6499"
           id="rect886" /></flowRegion><flowPara
         id="flowPara890" /></flowRoot>  </g>
  <g
     inkscape:label="bg-yellow"
     inkscape:groupmode="layer"
     id="g971"
     transform="translate(0,-26.066646)"
     style="display:inline"
     sodipodi:insensitive="true">
    <ellipse
       style="fill:#ffffff;fill-opacity:0.00171533;stroke:#bebebe;stroke-width:0.26458332;stroke-linecap:round;stroke-miterlimit:4;stroke-dasharray:none;stroke-opacity:1"
       id="ellipse959"
       cx="437.78748"
       cy="270.27301"
       rx="15.501633"
       ry="20.312483" />
    <flowRoot
       xml:space="preserve"
       id="flowRoot967"
       style="font-style:normal;font-variant:normal;font-weight:normal;font-stretch:normal;font-size:40px;line-height:1.25;font-family:arial;-inkscape-font-specification:arial;letter-spacing:0px;word-spacing:0px;fill:#000000;fill-opacity:1;stroke:none"
       transform="matrix(0.26458333,0,0,0.26458333,0,161.53331)"><flowRegion
         id="flowRegion963"><rect
           id="rect961"
           width="661.6499"
           height="485.88336"
           x="332.34018"
           y="-124.3961" /></flowRegion><flowPara
         id="flowPara965" /></flowRoot>    <ellipse
       ry="107.42081"
       rx="107.42083"
       style="opacity:0.98999999;fill:#ffbd00;fill-opacity:1;stroke:#00add7;stroke-width:0;stroke-linecap:round;stroke-miterlimit:4;stroke-dasharray:none;stroke-opacity:1"
       id="ellipse969"
       cx="135.46667"
       cy="161.5334" />
  </g>
  <g
     transform="translate(0,-26.066646)"
     style="display:inline;opacity:0.2"
     id="g1239"
     inkscape:groupmode="layer"
     inkscape:label="vert fold 20"
     sodipodi:insensitive="true">
    <path
       sodipodi:nodetypes="csc"
       inkscape:connector-curvature="0"
       id="path1227"
       d="m 135.46666,42.999976 c 65.46414,0 118.53331,53.069281 118.53332,118.533604 2e-5,65.46378 -53.06916,118.53306 -118.53332,118.53306"
       style="fill:#404756;fill-opacity:1;stroke:#404756;stroke-width:0;stroke-linecap:round;stroke-miterlimit:4;stroke-dasharray:none;stroke-opacity:1" />
    <flowRoot
       transform="matrix(0.26458333,0,0,0.26458333,0,161.53331)"
       style="font-style:normal;font-variant:normal;font-weight:normal;font-stretch:normal;font-size:40px;line-height:1.25;font-family:arial;-inkscape-font-specification:arial;letter-spacing:0px;word-spacing:0px;fill:#000000;fill-opacity:1;stroke:none"
       id="flowRoot1237"
       xml:space="preserve"><flowRegion
         id="flowRegion1233"><rect
           y="-124.3961"
           x="332.34018"
           height="485.88336"
           width="661.6499"
           id="rect1231" /></flowRegion><flowPara
         id="flowPara1235" /></flowRoot>  </g>
  <g
     style="display:inline;opacity:0.2"
     transform="translate(0,-26.066646)"
     id="g1253"
     inkscape:groupmode="layer"
     inkscape:label="horiz fold 20"
     sodipodi:insensitive="true">
    <path
       sodipodi:nodetypes="csc"
       inkscape:connector-curvature="0"
       id="path1241"
       d="m 253.99998,161.53358 c 2e-5,65.46378 -53.06916,118.53306 -118.53332,118.53306 -65.464154,0 -118.533331,-53.06928 -118.533322,-118.53306"
       style="fill:#404756;fill-opacity:1;stroke:#404756;stroke-width:0;stroke-linecap:round;stroke-miterlimit:4;stroke-dasharray:none;stroke-opacity:1" />
    <flowRoot
       transform="matrix(0.26458333,0,0,0.26458333,0,161.53331)"
       style="font-style:normal;font-variant:normal;font-weight:normal;font-stretch:normal;font-size:40px;line-height:1.25;font-family:arial;-inkscape-font-specification:arial;letter-spacing:0px;word-spacing:0px;fill:#000000;fill-opacity:1;stroke:none"
       id="flowRoot1251"
       xml:space="preserve"><flowRegion
         id="flowRegion1247"><rect
           y="-124.3961"
           x="332.34018"
           height="485.88336"
           width="661.6499"
           id="rect1245" /></flowRegion><flowPara
         id="flowPara1249" /></flowRoot>  </g>
  <g
     inkscape:label="ring-white"
     inkscape:groupmode="layer"
     id="g1042"
     transform="translate(0,-26.066646)"
     style="display:inline"
     sodipodi:insensitive="true">
    <path
       style="fill:#ffffff;fill-opacity:1;stroke:#ffffff;stroke-width:0;stroke-linecap:round;stroke-miterlimit:4;stroke-dasharray:none;stroke-opacity:1"
       d="M 135.46666,42.999991 A 118.53332,118.53332 0 0 0 16.933337,161.53333 118.53332,118.53332 0 0 0 135.46666,280.06664 118.53332,118.53332 0 0 0 254,161.53333 118.53332,118.53332 0 0 0 135.46666,42.999991 Z m 0,11.1125 A 107.42083,107.42083 0 0 1 242.8875,161.53333 107.42083,107.42083 0 0 1 135.46666,268.95414 107.42083,107.42083 0 0 1 28.045836,161.53333 107.42083,107.42083 0 0 1 135.46666,54.112491 Z"
       id="circle1030"
       inkscape:connector-curvature="0" />
    <ellipse
       style="fill:#ffffff;fill-opacity:0.00171533;stroke:#bebebe;stroke-width:0.26458332;stroke-linecap:round;stroke-miterlimit:4;stroke-dasharray:none;stroke-opacity:1"
       id="ellipse1032"
       cx="437.78748"
       cy="270.27301"
       rx="15.501633"
       ry="20.312483" />
    <flowRoot
       xml:space="preserve"
       id="flowRoot1040"
       style="font-style:normal;font-variant:normal;font-weight:normal;font-stretch:normal;font-size:40px;line-height:1.25;font-family:arial;-inkscape-font-specification:arial;letter-spacing:0px;word-spacing:0px;fill:#000000;fill-opacity:1;stroke:none"
       transform="matrix(0.26458333,0,0,0.26458333,0,161.53331)"><flowRegion
         id="flowRegion1036"><rect
           id="rect1034"
           width="661.6499"
           height="485.88336"
           x="332.34018"
           y="-124.3961" /></flowRegion><flowPara
         id="flowPara1038" /></flowRoot>  </g>
  <g
     style="display:none"
     transform="translate(0,-26.066646)"
     id="g934"
     inkscape:groupmode="layer"
     inkscape:label="ring-dark"
     sodipodi:insensitive="true">
    <path
       inkscape:connector-curvature="0"
       id="path922"
       d="M 135.46666,42.999976 A 118.53332,118.53336 0 0 0 16.93334,161.53358 118.53332,118.53336 0 0 0 135.46666,280.06664 118.53332,118.53336 0 0 0 254,161.53358 118.53332,118.53336 0 0 0 135.46666,42.999976 Z m 0,11.112649 A 107.42083,107.42086 0 0 1 242.8875,161.53358 107.42083,107.42086 0 0 1 135.46666,268.95427 107.42083,107.42086 0 0 1 28.045839,161.53358 107.42083,107.42086 0 0 1 135.46666,54.112625 Z"
       style="fill:#404756;fill-opacity:1;stroke:#ffffff;stroke-width:0;stroke-linecap:round;stroke-miterlimit:4;stroke-dasharray:none;stroke-opacity:1" />
    <flowRoot
       transform="matrix(0.26458333,0,0,0.26458333,0,161.53331)"
       style="font-style:normal;font-variant:normal;font-weight:normal;font-stretch:normal;font-size:40px;line-height:1.25;font-family:arial;-inkscape-font-specification:arial;letter-spacing:0px;word-spacing:0px;fill:#000000;fill-opacity:1;stroke:none"
       id="flowRoot932"
       xml:space="preserve"><flowRegion
         id="flowRegion928"><rect
           y="-124.3961"
           x="332.34018"
           height="485.88336"
           width="661.6499"
           id="rect926" /></flowRegion><flowPara
         id="flowPara930" /></flowRoot>  </g>
  <g
     style="display:inline"
     transform="translate(0,135.46667)"
     inkscape:label="w[R] narrow"
     id="g963"
     inkscape:groupmode="layer"
     sodipodi:insensitive="true">
    <g
       aria-label="w[R]"
       style="font-style:normal;font-variant:normal;font-weight:normal;font-stretch:normal;font-size:59.13885117px;line-height:1.25;font-family:arial;-inkscape-font-specification:arial;letter-spacing:0px;word-spacing:0px;fill:#ffffff;fill-opacity:1;stroke:#ffffff;stroke-width:4.23333311;stroke-miterlimit:4;stroke-dasharray:none;stroke-opacity:1"
       id="text961">
      <path
         d="M 76.266412,32.018105 H 66.936146 Q 63.611568,20.971927 60.608723,6.6011709 57.713123,-7.7695848 55.246501,-24.285229 h 9.115778 q 0.428978,4.611511 1.286933,10.831689 0.857956,6.1129329 1.823156,12.65484414 1.072444,6.43466676 2.144889,12.54759986 1.072444,6.005689 2.037644,10.295467 0.9652,-4.289778 2.144889,-10.509956 1.286933,-6.2201775 2.466622,-12.7620886 1.286934,-6.5419112 2.359378,-12.6548444 1.072445,-6.220178 1.715911,-10.402711 h 8.6868 q 0.428978,4.182533 1.286934,10.295466 0.9652,6.1129337 1.9304,12.7620894 1.072444,6.5419111 2.144889,12.7620886 1.072444,6.220178 1.9304,10.509956 0.9652,-4.289778 2.037644,-10.402711 1.072445,-6.1129336 2.037642,-12.54760031 1.07245,-6.43466679 1.9304,-12.54759969 0.85796,-6.220178 1.28694,-10.831689 h 8.79404 q -2.46662,16.5156442 -5.46947,30.8863999 -2.8956,14.3707561 -6.22017,25.4169341 h -9.008537 q -0.857956,-3.324578 -1.9304,-8.472312 -0.9652,-5.254978 -2.037645,-11.153422 Q 86.776368,6.4939265 85.918413,0.59548193 85.060457,-5.410207 84.41699,-10.343452 83.773524,-5.410207 82.701079,0.59548193 81.628635,6.4939265 80.448946,12.392371 q -1.179689,5.898444 -2.359378,11.153422 -1.072444,5.147734 -1.823156,8.472312 z"
         style="font-style:normal;font-variant:normal;font-weight:normal;font-stretch:normal;font-size:107.2444458px;line-height:1;font-family:'Ubuntu Condensed';-inkscape-font-specification:'Ubuntu Condensed, ';letter-spacing:0px;fill:#ffffff;fill-opacity:1;stroke:#ffffff;stroke-width:4.23333311;stroke-miterlimit:4;stroke-dasharray:none;stroke-opacity:1"
         id="path1028"
         inkscape:connector-curvature="0" />
      <path
         d="m 124.5549,-51.954297 h 19.41125 v 7.292623 h -10.6172 v 89.227379 h 10.6172 v 7.292622 H 124.5549 Z"
         style="letter-spacing:-3.70416665px"
         id="path1030"
         inkscape:connector-curvature="0" />
      <path
         d="m 149.94079,-41.229852 q 7.50711,-1.823156 14.478,-1.823156 5.57671,0 10.08098,1.286934 4.50426,1.286933 7.7216,4.075289 3.21733,2.788355 4.93324,7.185378 1.82316,4.397022 1.82316,10.6172 0,7.7216 -3.00285,12.5475999 -2.8956,4.7187557 -7.93609,7.18537791 1.28694,2.14488889 3.21734,5.89844449 2.03764,3.6463112 4.07529,8.1505777 2.14488,4.397022 4.07528,9.115778 2.03765,4.718756 3.43183,9.008534 h -9.652 q -1.17969,-3.217334 -3.00285,-7.292623 -1.71591,-4.075289 -3.64631,-8.043333 -1.9304,-4.075289 -3.8608,-7.7216003 -1.9304,-3.7535556 -3.43182,-6.3274223 -1.71591,0.2144889 -3.53907,0.3217333 -1.82315,0.1072445 -3.64631,0.1072445 H 159.3783 V 32.018105 h -9.43751 z m 9.43751,36.3558672 h 4.07529 q 7.39987,0 11.36791,-3.3245778 3.96804,-3.4318224 3.96804,-11.6896444 0,-4.182534 -1.07244,-6.970889 -0.9652,-2.8956 -2.8956,-4.504267 -1.82316,-1.715911 -4.50427,-2.466622 -2.57386,-0.750711 -5.7912,-0.750711 -2.78835,0 -5.14773,0.321733 z"
         style="letter-spacing:-3.70416665px"
         id="path1032"
         inkscape:connector-curvature="0" />
      <path
         d="m 210.27664,51.858327 h -19.41125 v -7.292622 h 10.6172 v -89.227379 h -10.6172 v -7.292623 h 19.41125 z"
         style="letter-spacing:-3.70416665px"
         id="path1034"
         inkscape:connector-curvature="0" />
    </g>
  </g>
</svg>
